<mxfile host="app.diagrams.net" modified="2021-07-02T08:29:57.154Z" agent="5.0 (Windows NT 10.0; WOW64) AppleWebKit/537.36 (KHTML, like Gecko) Chrome/89.0.4389.90 Safari/537.36" etag="aWY95s2X2a1X2Zj3RAAX" version="14.8.3" type="github">
  <diagram id="6DKVN_OBE5Q6o5waTTLU" name="Page-1">
    <mxGraphModel dx="1136" dy="614" grid="0" gridSize="10" guides="1" tooltips="1" connect="1" arrows="1" fold="1" page="1" pageScale="1" pageWidth="827" pageHeight="1169" math="0" shadow="0">
      <root>
        <mxCell id="0" />
        <mxCell id="1" parent="0" />
        <mxCell id="l0bt40RDR7Rpjfs3eood-1" style="edgeStyle=orthogonalEdgeStyle;rounded=0;orthogonalLoop=1;jettySize=auto;html=1;exitX=0.5;exitY=1;exitDx=0;exitDy=0;" edge="1" parent="1" source="l0bt40RDR7Rpjfs3eood-2">
          <mxGeometry relative="1" as="geometry">
            <mxPoint x="407" y="130" as="targetPoint" />
          </mxGeometry>
        </mxCell>
        <mxCell id="l0bt40RDR7Rpjfs3eood-2" value="开始" style="rounded=1;whiteSpace=wrap;html=1;" vertex="1" parent="1">
          <mxGeometry x="354" y="30" width="106" height="50" as="geometry" />
        </mxCell>
        <mxCell id="l0bt40RDR7Rpjfs3eood-3" value="输入船舶待测轨迹和航道数据" style="rounded=0;whiteSpace=wrap;html=1;" vertex="1" parent="1">
          <mxGeometry x="330.5" y="130" width="153" height="60" as="geometry" />
        </mxCell>
        <mxCell id="l0bt40RDR7Rpjfs3eood-4" style="edgeStyle=orthogonalEdgeStyle;rounded=0;orthogonalLoop=1;jettySize=auto;html=1;exitX=0.5;exitY=1;exitDx=0;exitDy=0;" edge="1" parent="1">
          <mxGeometry relative="1" as="geometry">
            <mxPoint x="406.5" y="240" as="targetPoint" />
            <mxPoint x="406.5" y="190" as="sourcePoint" />
          </mxGeometry>
        </mxCell>
        <mxCell id="l0bt40RDR7Rpjfs3eood-17" style="edgeStyle=orthogonalEdgeStyle;rounded=0;orthogonalLoop=1;jettySize=auto;html=1;exitX=1;exitY=0.5;exitDx=0;exitDy=0;" edge="1" parent="1" source="l0bt40RDR7Rpjfs3eood-5">
          <mxGeometry relative="1" as="geometry">
            <mxPoint x="407" y="550" as="targetPoint" />
            <Array as="points">
              <mxPoint x="600" y="385" />
              <mxPoint x="600" y="550" />
            </Array>
          </mxGeometry>
        </mxCell>
        <mxCell id="l0bt40RDR7Rpjfs3eood-5" value="轨迹与航道持续偏离是否大于阈值" style="rhombus;whiteSpace=wrap;html=1;" vertex="1" parent="1">
          <mxGeometry x="320.63" y="350" width="172.75" height="70" as="geometry" />
        </mxCell>
        <mxCell id="l0bt40RDR7Rpjfs3eood-6" value="" style="edgeStyle=orthogonalEdgeStyle;rounded=0;orthogonalLoop=1;jettySize=auto;html=1;" edge="1" parent="1" source="l0bt40RDR7Rpjfs3eood-8">
          <mxGeometry relative="1" as="geometry">
            <mxPoint x="407" y="350.00607814761213" as="targetPoint" />
          </mxGeometry>
        </mxCell>
        <mxCell id="l0bt40RDR7Rpjfs3eood-7" value="" style="edgeStyle=orthogonalEdgeStyle;rounded=0;orthogonalLoop=1;jettySize=auto;html=1;" edge="1" parent="1" source="l0bt40RDR7Rpjfs3eood-8">
          <mxGeometry relative="1" as="geometry">
            <mxPoint x="407" y="350.00607814761213" as="targetPoint" />
          </mxGeometry>
        </mxCell>
        <mxCell id="l0bt40RDR7Rpjfs3eood-8" value="获取与待测轨迹相似度最高的航道" style="rounded=0;whiteSpace=wrap;html=1;" vertex="1" parent="1">
          <mxGeometry x="330.5" y="240" width="153" height="60" as="geometry" />
        </mxCell>
        <mxCell id="l0bt40RDR7Rpjfs3eood-9" style="edgeStyle=orthogonalEdgeStyle;rounded=0;orthogonalLoop=1;jettySize=auto;html=1;exitX=0.5;exitY=1;exitDx=0;exitDy=0;" edge="1" parent="1">
          <mxGeometry relative="1" as="geometry">
            <mxPoint x="406.51" y="470" as="targetPoint" />
            <mxPoint x="406.51" y="420" as="sourcePoint" />
          </mxGeometry>
        </mxCell>
        <mxCell id="l0bt40RDR7Rpjfs3eood-10" value="是" style="text;html=1;align=center;verticalAlign=middle;resizable=0;points=[];autosize=1;strokeColor=none;" vertex="1" parent="1">
          <mxGeometry x="399.01" y="430" width="30" height="20" as="geometry" />
        </mxCell>
        <mxCell id="l0bt40RDR7Rpjfs3eood-12" value="写入特征数据库" style="shape=process;whiteSpace=wrap;html=1;backgroundOutline=1;" vertex="1" parent="1">
          <mxGeometry x="347.01" y="470" width="120" height="60" as="geometry" />
        </mxCell>
        <mxCell id="l0bt40RDR7Rpjfs3eood-13" value="结束" style="rounded=1;whiteSpace=wrap;html=1;" vertex="1" parent="1">
          <mxGeometry x="347" y="580" width="120" height="60" as="geometry" />
        </mxCell>
        <mxCell id="l0bt40RDR7Rpjfs3eood-14" value="" style="edgeStyle=orthogonalEdgeStyle;rounded=0;orthogonalLoop=1;jettySize=auto;html=1;" edge="1" parent="1">
          <mxGeometry relative="1" as="geometry">
            <mxPoint x="406.5" y="580.0060781476121" as="targetPoint" />
            <mxPoint x="406.5" y="530" as="sourcePoint" />
          </mxGeometry>
        </mxCell>
        <mxCell id="l0bt40RDR7Rpjfs3eood-18" value="否" style="text;html=1;align=center;verticalAlign=middle;resizable=0;points=[];autosize=1;strokeColor=none;" vertex="1" parent="1">
          <mxGeometry x="530" y="360" width="30" height="20" as="geometry" />
        </mxCell>
      </root>
    </mxGraphModel>
  </diagram>
</mxfile>
